<svg width="24" height="24" viewBox="0 0 24 24" fill="none" xmlns="http://www.w3.org/2000/svg">
<path d="M18.8571 6H5.14286C4.83975 6 4.54906 6.12643 4.33474 6.35147C4.12041 6.57652 4 6.88174 4 7.2V16.8C4 17.1183 4.12041 17.4235 4.33474 17.6485C4.54906 17.8736 4.83975 18 5.14286 18H18.8571C19.1602 18 19.4509 17.8736 19.6653 17.6485C19.8796 17.4235 20 17.1183 20 16.8V7.2C20 6.88174 19.8796 6.57652 19.6653 6.35147C19.4509 6.12643 19.1602 6 18.8571 6V6ZM17.6 7.2L12 11.268L6.4 7.2H17.6ZM5.14286 16.8V7.746L11.6743 12.492C11.7699 12.5617 11.8836 12.599 12 12.599C12.1164 12.599 12.2301 12.5617 12.3257 12.492L18.8571 7.746V16.8H5.14286Z" fill="white"/>
</svg>
