<svg width="87" height="86" viewBox="0 0 87 86" fill="none" xmlns="http://www.w3.org/2000/svg">
<path d="M74.9013 9.40625H13.0636C11.5765 9.40625 10.375 10.6072 10.375 12.0938V73.9062C10.375 75.3928 11.5765 76.5938 13.0636 76.5938H74.9013C76.3885 76.5938 77.5899 75.3928 77.5899 73.9062V12.0938C77.5899 10.6072 76.3885 9.40625 74.9013 9.40625ZM72.2127 71.2188H56.7449V50.5754H65.4828L66.7935 40.4385H56.7449V33.9633C56.7449 31.0238 57.5599 29.025 61.7692 29.025H67.138V19.9547C66.2054 19.8287 63.0211 19.5516 59.3075 19.5516C51.5609 19.5516 46.2594 24.2799 46.2594 32.9555V40.4301H37.5046V50.567H46.2678V71.2188H15.7522V14.7812H72.2127V71.2188Z" fill="white"/>
</svg>
