<svg width="87" height="86" viewBox="0 0 87 86" fill="none" xmlns="http://www.w3.org/2000/svg">
<path fill-rule="evenodd" clip-rule="evenodd" d="M27.0705 3.81975C31.2754 3.62625 32.6162 3.58325 43.3275 3.58325C54.0389 3.58325 55.3796 3.62984 59.581 3.81975C63.7824 4.00967 66.6502 4.67975 69.1596 5.65084C71.7872 6.64342 74.1711 8.195 76.1428 10.2017C78.1502 12.1689 79.6989 14.5483 80.6883 17.1784C81.6633 19.6868 82.3301 22.5534 82.5237 26.7459C82.7173 30.9563 82.7603 32.2965 82.7603 42.9999C82.7603 53.7069 82.7137 55.0471 82.5237 59.2503C82.3337 63.4428 81.6633 66.3095 80.6883 68.8178C79.6988 71.4483 78.1477 73.8316 76.1428 75.8017C74.1711 77.8084 71.7872 79.3564 69.1596 80.3454C66.6502 81.3201 63.7824 81.9866 59.5882 82.1801C55.3796 82.3736 54.0389 82.4166 43.3275 82.4166C32.6162 82.4166 31.2754 82.37 27.0705 82.1801C22.8763 81.9902 20.0084 81.3201 17.4991 80.3454C14.8676 79.3563 12.4833 77.8057 10.5123 75.8017C8.50618 73.8333 6.95373 71.4512 5.9632 68.8214C4.99172 66.3131 4.32495 63.4464 4.13137 59.2539C3.93779 55.0435 3.89478 53.7033 3.89478 42.9999C3.89478 32.2929 3.94138 30.9527 4.13137 26.7531C4.32137 22.5534 4.99172 19.6868 5.9632 17.1784C6.9552 14.5485 8.50883 12.1665 10.5159 10.1981C12.4841 8.19321 14.8659 6.64142 17.4955 5.65084C20.0048 4.67975 22.8727 4.01325 27.0669 3.81975H27.0705ZM59.2619 10.9148C55.1036 10.7248 53.8561 10.6854 43.3275 10.6854C32.799 10.6854 31.5515 10.7248 27.3931 10.9148C23.5466 11.0903 21.4603 11.7318 20.0694 12.2728C18.2304 12.9895 16.9148 13.8388 15.5346 15.2183C14.2263 16.4906 13.2195 18.0394 12.5879 19.7513C12.0466 21.1416 11.4049 23.2271 11.2293 27.072C11.0393 31.2287 10.9998 32.4757 10.9998 42.9999C10.9998 53.5242 11.0393 54.7712 11.2293 58.9278C11.4049 62.7727 12.0466 64.8582 12.5879 66.2486C13.2188 67.9578 14.2262 69.5094 15.5346 70.7815C16.8072 72.0894 18.3594 73.0963 20.0694 73.727C21.4603 74.2681 23.5466 74.9095 27.3931 75.0851C31.5515 75.275 32.7954 75.3144 43.3275 75.3144C53.8597 75.3144 55.1036 75.275 59.2619 75.0851C63.1084 74.9095 65.1948 74.2681 66.5857 73.727C68.4247 73.0103 69.7403 72.1611 71.1205 70.7815C72.4289 69.5094 73.4362 67.9578 74.0672 66.2486C74.6085 64.8582 75.2501 62.7727 75.4258 58.9278C75.6158 54.7712 75.6552 53.5242 75.6552 42.9999C75.6552 32.4757 75.6158 31.2287 75.4258 27.072C75.2501 23.2271 74.6085 21.1416 74.0672 19.7513C73.3502 17.913 72.5006 16.5979 71.1205 15.2183C69.8476 13.9107 68.2982 12.9043 66.5857 12.2728C65.1948 11.7318 63.1084 11.0903 59.2619 10.9148V10.9148ZM38.2909 55.151C41.1037 56.3214 44.2358 56.4794 47.1523 55.5979C50.0687 54.7164 52.5885 52.8502 54.2813 50.318C55.9741 47.7857 56.7349 44.7445 56.4337 41.7139C56.1326 38.6832 54.7881 35.8511 52.6301 33.7012C51.2544 32.3269 49.5909 31.2746 47.7595 30.62C45.9281 29.9655 43.9743 29.725 42.0388 29.9158C40.1032 30.1066 38.2341 30.7241 36.5659 31.7236C34.8977 32.7232 33.472 34.0801 32.3914 35.6965C31.3108 37.313 30.6022 39.1489 30.3166 41.0719C30.031 42.995 30.1755 44.9575 30.7397 46.818C31.3039 48.6786 32.2737 50.3909 33.5795 51.8318C34.8852 53.2727 36.4943 54.4063 38.2909 55.151ZM28.9955 28.6737C30.8776 26.7924 33.112 25.3001 35.5711 24.2819C38.0302 23.2637 40.6658 22.7397 43.3275 22.7397C45.9892 22.7397 48.6249 23.2637 51.084 24.2819C53.5431 25.3001 55.7774 26.7924 57.6595 28.6737C59.5417 30.5551 61.0346 32.7886 62.0532 35.2467C63.0718 37.7047 63.5961 40.3393 63.5961 42.9999C63.5961 45.6605 63.0718 48.2951 62.0532 50.7532C61.0346 53.2113 59.5417 55.4447 57.6595 57.3261C53.8585 61.1256 48.7031 63.2602 43.3275 63.2602C37.952 63.2602 32.7966 61.1256 28.9955 57.3261C25.1944 53.5265 23.059 48.3733 23.059 42.9999C23.059 37.6266 25.1944 32.4733 28.9955 28.6737V28.6737ZM68.0913 25.7569C68.5577 25.3171 68.9311 24.7883 69.1893 24.2017C69.4476 23.615 69.5855 22.9826 69.5948 22.3417C69.6042 21.7009 69.4848 21.0647 69.2438 20.4708C69.0027 19.8769 68.6449 19.3374 68.1915 18.8842C67.7382 18.431 67.1984 18.0734 66.6043 17.8324C66.0102 17.5915 65.3737 17.4722 64.7326 17.4815C64.0915 17.4908 63.4588 17.6287 62.8719 17.8868C62.2851 18.145 61.756 18.5182 61.316 18.9844C60.4604 19.8911 59.9919 21.0954 60.0101 22.3417C60.0283 23.5881 60.5317 24.7782 61.4134 25.6596C62.2951 26.541 63.4858 27.0442 64.7326 27.0623C65.9794 27.0805 67.1842 26.6122 68.0913 25.7569V25.7569Z" fill="white"/>
</svg>
