<svg width="87" height="86" viewBox="0 0 87 86" fill="none" xmlns="http://www.w3.org/2000/svg">
<path d="M71.2227 9.40625H14.8126C11.8299 9.40625 9.41016 11.825 9.41016 14.8064V71.1936C9.41016 74.175 11.8299 76.5938 14.8126 76.5938H71.2227C74.2053 76.5938 76.6251 74.175 76.6251 71.1936V14.8064C76.6251 11.825 74.2053 9.40625 71.2227 9.40625V9.40625ZM71.2227 71.2188C33.5991 71.2104 14.7873 71.202 14.7873 71.1936C14.7958 33.5854 14.8042 14.7812 14.8126 14.7812C52.4361 14.7896 71.2479 14.798 71.2479 14.8064C71.2395 52.4146 71.2311 71.2188 71.2227 71.2188ZM19.3748 34.5932H29.3478V66.6584H19.3748V34.5932ZM24.3655 30.2092C27.5498 30.2092 30.146 27.6225 30.146 24.4311C30.146 23.6723 29.9964 22.9209 29.7059 22.2199C29.4154 21.5188 28.9897 20.8819 28.4529 20.3453C27.9161 19.8088 27.2789 19.3831 26.5776 19.0928C25.8762 18.8024 25.1246 18.6529 24.3655 18.6529C23.6064 18.6529 22.8547 18.8024 22.1534 19.0928C21.4521 19.3831 20.8148 19.8088 20.2781 20.3453C19.7413 20.8819 19.3155 21.5188 19.025 22.2199C18.7345 22.9209 18.585 23.6723 18.585 24.4311C18.5766 27.6225 21.1644 30.2092 24.3655 30.2092ZM45.5634 50.7937C45.5634 46.6113 46.3616 42.5633 51.5455 42.5633C56.6538 42.5633 56.7295 47.342 56.7295 51.0625V66.6584H66.6941V49.0721C66.6941 40.4385 64.8289 33.7953 54.7382 33.7953C49.8903 33.7953 46.6388 36.4576 45.3029 38.9771H45.1685V34.5932H35.5988V66.6584H45.5634V50.7937Z" fill="white"/>
</svg>
