<svg width="86" height="82" viewBox="0 0 86 82" fill="none" xmlns="http://www.w3.org/2000/svg">
<path fill-rule="evenodd" clip-rule="evenodd" d="M41 0H36V5V71.5989C22.8842 69.4721 12.5279 59.1158 10.4011 46H29.6207V36H10.4012C12.2605 24.5358 20.4081 15.1723 31.2001 11.5795L28.0414 2.09146C11.7545 7.51358 0 22.8776 0 41C0 63.6437 18.3563 82 41 82H77H85.0902L81.4721 74.7639L66.47 44.7597C75.5057 41.6585 82 33.0877 82 23C82 10.2975 71.7025 0 59 0H41ZM68.9098 72H46V10H59C66.1797 10 72 15.8203 72 23C72 30.1797 66.1797 36 59 36H51.6966V46H55.9098L68.9098 72Z" fill="white"/>
</svg>
