<svg width="24" height="24" viewBox="0 0 24 24" fill="none" xmlns="http://www.w3.org/2000/svg">
<path d="M16.3857 12.6655C16.3076 12.5872 16.2148 12.5252 16.1127 12.4828C16.0105 12.4405 15.9011 12.4187 15.7905 12.4187C15.6799 12.4187 15.5705 12.4405 15.4683 12.4828C15.3662 12.5252 15.2734 12.5872 15.1953 12.6655L13.8534 14.0074C13.2312 13.8222 12.0703 13.4013 11.3345 12.6655C10.5987 11.9297 10.1778 10.7688 9.99258 10.1466L11.3345 8.80469C11.4128 8.72658 11.4748 8.6338 11.5172 8.53167C11.5595 8.42954 11.5813 8.32006 11.5813 8.2095C11.5813 8.09893 11.5595 7.98945 11.5172 7.88732C11.4748 7.78519 11.4128 7.69241 11.3345 7.6143L7.96705 4.24684C7.88894 4.16859 7.79616 4.10651 7.69403 4.06416C7.5919 4.0218 7.48242 4 7.37185 4C7.26129 4 7.15181 4.0218 7.04968 4.06416C6.94755 4.10651 6.85477 4.16859 6.77665 4.24684L4.49352 6.52997C4.17361 6.84988 3.99345 7.28934 4.00018 7.73805C4.01955 8.93687 4.33693 13.1007 7.61852 16.3823C10.9001 19.6639 15.064 19.9805 16.2636 20.0007H16.2872C16.7317 20.0007 17.1518 19.8256 17.47 19.5073L19.7532 17.2242C19.8314 17.1461 19.8935 17.0533 19.9358 16.9512C19.9782 16.849 20 16.7396 20 16.629C20 16.5184 19.9782 16.4089 19.9358 16.3068C19.8935 16.2047 19.8314 16.1119 19.7532 16.0338L16.3857 12.6655ZM16.2788 18.3161C15.2281 18.2984 11.6334 18.0164 8.80892 15.1911C5.9752 12.3574 5.70075 8.74997 5.68391 7.72037L7.37185 6.03243L9.54892 8.2095L8.46038 9.29803C8.36143 9.3969 8.28868 9.51888 8.2487 9.65293C8.20872 9.78698 8.20277 9.92888 8.2314 10.0658C8.2516 10.1626 8.74578 12.4584 10.1433 13.8559C11.5408 15.2534 13.8365 15.7476 13.9333 15.7678C14.0702 15.7972 14.2122 15.7917 14.3464 15.7519C14.4806 15.712 14.6026 15.639 14.7011 15.5396L15.7905 14.4511L17.9676 16.6281L16.2788 18.3161Z" fill="white"/>
</svg>
