<svg width="114" height="23" viewBox="0 0 114 23" fill="none" xmlns="http://www.w3.org/2000/svg">
<path d="M36.7218 6.27828C33.5944 6.27828 31.0396 8.60203 31.0396 11.8082C31.0396 14.9883 33.5944 17.3364 36.7218 17.3364C39.8558 17.3364 42.4106 14.9883 42.4106 11.8082C42.4106 8.60203 39.8558 6.27828 36.7218 6.27828ZM36.7218 15.1589C35.0058 15.1589 33.5295 13.776 33.5295 11.8082C33.5295 9.81428 35.0058 8.45578 36.7218 8.45578C38.4377 8.45578 39.9207 9.81428 39.9207 11.8082C39.9207 13.776 38.4377 15.1589 36.7218 15.1589ZM24.3238 6.27828C21.1898 6.27828 18.6417 8.60203 18.6417 11.8082C18.6417 14.9883 21.1898 17.3364 24.3238 17.3364C27.4562 17.3364 30.006 14.9883 30.006 11.8082C30.006 8.60203 27.4562 6.27828 24.3238 6.27828ZM24.3238 15.1589C22.6062 15.1589 21.1249 13.776 21.1249 11.8082C21.1249 9.81428 22.6062 8.45578 24.3238 8.45578C26.0398 8.45578 27.5161 9.81428 27.5161 11.8082C27.5161 13.776 26.0398 15.1589 24.3238 15.1589ZM9.57082 7.97315V10.3229H15.3179C15.1498 11.6359 14.7004 12.6012 14.0114 13.2739C13.1725 14.0864 11.866 14.9883 9.57082 14.9883C6.03402 14.9883 3.2645 12.2014 3.2645 8.74828C3.2645 5.29515 6.03402 2.50828 9.57082 2.50828C11.4832 2.50828 12.8746 3.2379 13.9015 4.18365L15.5975 2.52778C14.1612 1.18878 12.2505 0.160153 9.57082 0.160153C4.72083 0.160153 0.644779 4.01303 0.644779 8.74828C0.644779 13.4835 4.72083 17.3364 9.57082 17.3364C12.1922 17.3364 14.1612 16.4979 15.709 14.9249C17.2952 13.3763 17.7895 11.1988 17.7895 9.44053C17.7895 8.89453 17.7429 8.3924 17.6597 7.97315H9.57082ZM69.8978 9.79478C69.4301 8.55815 67.9871 6.27828 65.0478 6.27828C62.1351 6.27828 59.7101 8.51915 59.7101 11.8082C59.7101 14.9054 62.1102 17.3364 65.3274 17.3364C67.9288 17.3364 69.4301 15.7878 70.0476 14.8859L68.1169 13.6298C67.4728 14.5495 66.5956 15.1589 65.3274 15.1589C64.0675 15.1589 63.1637 14.595 62.5845 13.4835L70.1591 10.4236L69.8978 9.79478ZM62.1751 11.6359C62.1102 9.5039 63.8711 8.4119 65.1327 8.4119C66.1213 8.4119 66.9601 8.89453 67.2398 9.58515L62.1751 11.6359ZM56.0185 17H58.5084V0.750029H56.0185V17ZM51.9408 7.51003H51.8576C51.2984 6.86328 50.2315 6.27828 48.88 6.27828C46.0439 6.27828 43.4508 8.70928 43.4508 11.826C43.4508 14.9249 46.0439 17.3364 48.88 17.3364C50.2315 17.3364 51.2984 16.7465 51.8576 16.0803H51.9408V16.8733C51.9408 18.9874 50.7841 20.1233 48.9183 20.1233C47.3971 20.1233 46.4534 19.0508 46.0639 18.1489L43.8986 19.0313C44.5227 20.497 46.1754 22.3008 48.9183 22.3008C51.8376 22.3008 54.3009 20.6238 54.3009 16.5434V6.61465H51.9408V7.51003ZM49.0931 15.1589C47.3771 15.1589 45.9407 13.7565 45.9407 11.826C45.9407 9.87765 47.3771 8.45578 49.0931 8.45578C50.7841 8.45578 52.1172 9.87765 52.1172 11.826C52.1172 13.7565 50.7841 15.1589 49.0931 15.1589ZM81.5551 0.750029H75.5999V17H78.0832V10.8429H81.5551C84.3129 10.8429 87.0175 8.89453 87.0175 5.79565C87.0175 2.6984 84.3063 0.750029 81.5551 0.750029ZM81.62 8.58253H78.0832V3.0104H81.62C83.4741 3.0104 84.5326 4.51353 84.5326 5.79565C84.5326 7.0534 83.4741 8.58253 81.62 8.58253ZM96.9705 6.2474C95.1763 6.2474 93.3105 7.0209 92.5432 8.73528L94.7469 9.63715C95.2212 8.73528 96.0934 8.44278 97.0154 8.44278C98.3037 8.44278 99.6102 9.1984 99.6302 10.5325V10.7032C99.1808 10.4497 98.2188 10.0743 97.0354 10.0743C94.662 10.0743 92.2437 11.3499 92.2437 13.7305C92.2437 15.908 94.1877 17.3104 96.373 17.3104C98.044 17.3104 98.9661 16.5743 99.5453 15.7179H99.6302V16.974H102.029V10.7405C102.029 7.8594 99.8249 6.2474 96.9705 6.2474ZM96.6709 15.1524C95.8587 15.1524 94.7269 14.7592 94.7269 13.776C94.7269 12.5183 96.1383 12.0357 97.36 12.0357C98.4535 12.0357 98.9661 12.2713 99.6302 12.5817C99.4354 14.0864 98.1089 15.1524 96.6709 15.1524ZM110.766 6.60328L107.912 13.6477H107.827L104.876 6.60328H102.198L106.632 16.4475L104.102 21.9254H106.697L113.529 6.60328H110.766ZM88.3823 17H90.8722V0.750029H88.3823V17Z" fill="white"/>
</svg>
