<svg width="87" height="86" viewBox="0 0 87 86" fill="none" xmlns="http://www.w3.org/2000/svg">
<path d="M60.6023 50.3822C59.6865 49.9119 55.1243 47.6779 54.2757 47.3756C53.4271 47.0564 52.8054 46.9053 52.1921 47.8459C51.5703 48.7781 49.8059 50.8525 49.2514 51.4824C48.7137 52.1039 48.1676 52.1795 47.2518 51.7176C41.8074 48.9965 38.2366 46.8633 34.649 40.7072C33.6996 39.0695 35.5984 39.1871 37.3712 35.6514C37.6737 35.0299 37.5224 34.5008 37.2872 34.0305C37.0519 33.5602 35.2035 29.0082 34.4305 27.1521C33.6828 25.3465 32.9098 25.5984 32.3469 25.5648C31.8092 25.5312 31.1958 25.5312 30.5741 25.5312C29.9524 25.5312 28.9525 25.7664 28.104 26.6818C27.2554 27.6141 24.8608 29.8564 24.8608 34.4084C24.8608 38.9604 28.1796 43.3695 28.6333 43.991C29.1038 44.6125 35.1615 53.9516 44.4624 57.9744C50.3437 60.5107 52.6458 60.7291 55.5864 60.2924C57.376 60.0236 61.0644 58.0584 61.829 55.8832C62.5936 53.7164 62.5936 51.8604 62.3667 51.474C62.1399 51.0625 61.5181 50.8273 60.6023 50.3822Z" fill="white"/>
<path d="M78.3891 28.4203C76.4903 23.9104 73.7681 19.8623 70.2981 16.3854C66.8281 12.9168 62.7784 10.1873 58.2582 8.29766C53.6372 6.35762 48.7305 5.375 43.6726 5.375H43.5045C38.413 5.4002 33.4811 6.40801 28.8433 8.39004C24.3651 10.3049 20.349 13.026 16.9126 16.4945C13.4763 19.9631 10.7793 23.9943 8.91406 28.4875C6.98163 33.1402 6.00701 38.0869 6.03221 43.1764C6.05742 49.0049 7.45213 54.7914 10.0651 59.9648V72.7305C10.0651 74.8637 11.7959 76.5938 13.93 76.5938H26.7092C31.8848 79.2057 37.6736 80.5998 43.5045 80.625H43.681C48.7137 80.625 53.5952 79.6508 58.191 77.7443C62.686 75.8715 66.7273 73.184 70.1889 69.749C73.6588 66.3141 76.3894 62.2996 78.2967 57.8232C80.2795 53.1873 81.2877 48.2574 81.3129 43.168C81.3381 38.0533 80.3467 33.0898 78.3891 28.4203V28.4203ZM65.6939 65.2055C59.8042 71.034 51.9904 74.2422 43.6726 74.2422H43.5297C38.4634 74.217 33.4307 72.9572 28.9861 70.5889L28.2804 70.2109H16.4505V58.3859L16.0724 57.6805C13.7031 53.2377 12.4428 48.207 12.4176 43.1428C12.384 34.7695 15.5851 26.9086 21.458 20.9877C27.3225 15.0668 35.1615 11.7914 43.5381 11.7578H43.681C47.8819 11.7578 51.9568 12.5725 55.7965 14.185C59.5437 15.7555 62.9045 18.0146 65.7947 20.9037C68.6765 23.7844 70.945 27.1521 72.5162 30.8979C74.1461 34.7779 74.9611 38.8932 74.9443 43.1428C74.8939 51.5076 71.6088 59.3434 65.6939 65.2055V65.2055Z" fill="white"/>
</svg>
